<svg xmlns="http://www.w3.org/2000/svg" width="2039" height="494" viewBox="0 0 2039 494" fill="none" role="img" aria-labelledby="a1vkuv4cjjc6y4gky8rtdfukpgqwk64i" class="w-24 h-auto fill-current text-neutral-800 group-hover:text-black"><title id="a1vkuv4cjjc6y4gky8rtdfukpgqwk64i">Logo light</title>
<g clip-path="url(#clip0_1_2)">
<path d="M174.419 493.932C139.585 493.932 109.106 487.76 82.9811 475.411C56.8665 463.067 36.627 445.551 22.252 422.869C7.87695 400.192 0.689453 373.864 0.689453 343.89C0.689453 307.848 9.38737 275.452 26.7936 246.702C44.2103 217.952 68.5072 195.281 99.6895 178.682C130.882 162.072 165.919 153.765 204.794 153.765C242.044 153.765 274.236 161.567 301.377 177.161C328.512 192.744 348.356 214.713 360.898 243.057L262.502 289.827C250.346 260.676 229.085 246.098 198.71 246.098C175.221 246.098 155.882 254.609 140.689 271.619C125.507 288.619 117.919 310.489 117.919 337.223C117.919 356.656 123.486 372.14 134.627 383.682C145.762 395.223 161.658 400.994 182.314 400.994C197.7 400.994 211.262 397.557 223.002 390.682C234.752 383.796 244.882 372.859 253.398 357.869L337.814 408.89C322.023 435.63 299.846 456.489 271.294 471.473C242.752 486.447 210.46 493.932 174.419 493.932Z" fill="white"></path>
<path d="M505.49 493.932C470.657 493.932 440.282 487.76 414.365 475.411C388.449 463.067 368.397 445.551 354.219 422.869C340.053 400.192 332.969 373.864 332.969 343.89C332.969 307.848 341.667 275.452 359.074 246.702C376.49 217.952 400.584 195.281 431.365 178.682C462.141 162.072 496.766 153.765 535.24 153.765C570.074 153.765 600.449 159.947 626.365 172.307C652.282 184.656 672.324 202.067 686.49 224.536C700.667 247.01 707.761 273.234 707.761 303.202C707.761 339.244 699.053 371.744 681.636 400.702C664.23 429.65 640.24 452.426 609.657 469.036C579.084 485.635 544.365 493.932 505.49 493.932ZM512.157 400.994C535.24 400.994 554.074 392.494 568.657 375.494C583.24 358.484 590.532 336.406 590.532 309.265C590.532 289.838 585.058 274.452 574.115 263.119C563.183 251.775 548.001 246.098 528.574 246.098C505.49 246.098 486.657 254.609 472.074 271.619C457.49 288.619 450.199 310.89 450.199 338.432C450.199 357.88 455.662 373.171 466.594 384.307C477.537 395.432 492.725 400.994 512.157 400.994Z" fill="white"></path>
<path d="M783.082 37.7441H898.519L808.603 488.473H693.186L783.082 37.7441Z" fill="white"></path>
<path d="M939.806 37.7441H1055.24L965.327 488.473H849.91L939.806 37.7441Z" fill="white"></path>
<path d="M1072.24 159.223H1187.05L1121.45 488.473H1006.63L1072.24 159.223ZM1145.74 122.786C1125.89 122.786 1109.89 117.322 1097.74 106.39C1085.6 95.4473 1079.53 81.8796 1079.53 65.6817C1079.53 46.6556 1086.31 30.9681 1099.88 18.6192C1113.45 6.25978 1131.37 0.0774841 1153.63 0.0774841C1173.88 0.0774841 1190.08 5.24415 1202.24 15.5775C1214.39 25.9004 1220.47 39.1556 1220.47 55.3483C1220.47 75.1973 1213.58 91.4004 1199.8 103.952C1186.04 116.51 1168.01 122.786 1145.74 122.786Z" fill="white"></path>
<path d="M1602.56 37.7441L1512.65 488.473H1403.31L1409.98 456.286C1383.66 481.385 1351.88 493.932 1314.63 493.932C1290.32 493.932 1267.53 487.963 1246.27 476.015C1225.02 464.072 1207.91 446.76 1194.94 424.077C1181.98 401.4 1175.5 374.671 1175.5 343.89C1175.5 308.255 1183.5 275.963 1199.5 247.015C1215.5 218.057 1237.26 195.281 1264.79 178.682C1292.33 162.072 1322.3 153.765 1354.71 153.765C1401.68 153.765 1435.09 168.343 1454.94 197.494L1487.13 37.7441H1602.56ZM1354.71 400.994C1377.79 400.994 1396.62 392.494 1411.19 375.494C1425.77 358.484 1433.06 336.406 1433.06 309.265C1433.06 289.838 1427.6 274.452 1416.67 263.119C1405.74 251.775 1390.55 246.098 1371.11 246.098C1348.02 246.098 1329.19 254.609 1314.61 271.619C1300.03 288.619 1292.75 310.89 1292.75 338.432C1292.75 357.88 1298.22 373.171 1309.15 384.307C1320.07 395.432 1335.26 400.994 1354.71 400.994Z" fill="white"></path>
<path d="M1925.72 298.348C1925.72 314.14 1923.49 332.161 1919.04 352.411H1677.26C1681.32 388.051 1706.23 405.869 1751.99 405.869C1766.56 405.869 1780.73 403.64 1794.49 399.182C1808.27 394.723 1820.62 388.046 1831.56 379.14L1879.56 451.411C1841.08 479.76 1794.31 493.932 1739.22 493.932C1704.4 493.932 1673.73 487.76 1647.2 475.411C1620.67 463.067 1600.22 445.656 1585.85 423.182C1571.47 400.697 1564.29 374.265 1564.29 343.89C1564.29 307.848 1572.69 275.359 1589.49 246.411C1606.3 217.452 1629.79 194.775 1659.95 178.369C1690.13 161.968 1724.66 153.765 1763.54 153.765C1796.34 153.765 1824.99 159.739 1849.49 171.682C1873.99 183.63 1892.82 200.536 1905.97 222.411C1919.14 244.275 1925.72 269.588 1925.72 298.348ZM1758.06 235.765C1739.43 235.765 1723.84 240.734 1711.29 250.661C1698.73 260.577 1689.62 274.244 1683.95 291.661H1819.41C1819.81 274.244 1814.35 260.577 1803.01 250.661C1791.68 240.734 1776.69 235.765 1758.06 235.765Z" fill="white"></path>
<path d="M1964.62 493.932C1945.58 493.932 1929.89 487.963 1917.53 476.015C1905.18 464.072 1899.01 448.989 1899.01 430.765C1899.01 408.89 1906.2 391.176 1920.57 377.619C1934.95 364.051 1952.46 357.265 1973.12 357.265C1992.56 357.265 2008.25 363.036 2020.2 374.577C2032.14 386.119 2038.12 401.406 2038.12 420.432C2038.12 441.906 2030.93 459.525 2016.55 473.286C2002.18 487.051 1984.87 493.932 1964.62 493.932Z" fill="#FDE047"></path>
</g>
<defs>
<clipPath id="clip0_1_2">
<rect width="2039" height="494" fill="white"></rect>
</clipPath>
</defs>
</svg>